# xmcd
#
# Track frame offsets: 
#        150
#        20920
#        30683
#        41874
#        56004
#        68710
#        81298
#        95605
#        105104
#        121010
#        132336
#        144313
#
# Disc length: 2102 seconds
#
# Revision: 0
# Processed by: cddbd v1.5.2PL0 Copyright (c) Steve Scherf et al.
# Submitted via: ExactAudioCopyFreeDBPlugin 1.0
#
DISCID=a008340c
DTITLE=Doris Duke - I'm A Loser
DYEAR=1970
DGENRE=Soul
TTITLE0=He's Gone
TTITLE1=I Can't Do Without You
TTITLE2=Feet Start Walking
TTITLE3=Ghost Of Myself
TTITLE4=Your Best Friend
TTITLE5=The Feeling Is Right
TTITLE6=I Don't Care Anymore
TTITLE7=Congratulations Baby
TTITLE8=We're More Than Strangers
TTITLE9=Divorce Decree
TTITLE10=How Was I To Know You Cared
TTITLE11=To The Other Woman (I'm The Other Woman)
EXTD=
EXTT0=
EXTT1=
EXTT2=
EXTT3=
EXTT4=
EXTT5=
EXTT6=
EXTT7=
EXTT8=
EXTT9=
EXTT10=
EXTT11=
PLAYORDER=
